<svg xmlns="http://www.w3.org/2000/svg" width="350" height="100" viewBox="0 0 262.5 75"><defs><clipPath id="a"><path d="M0 0h134v25H0z"/></clipPath><clipPath id="b"><path d="M148 47.965h2V49h-2Zm0 0"/></clipPath><clipPath id="c"><path d="M147 48h3.668v2H147Zm0 0"/></clipPath><clipPath id="d"><path d="M145.43 49h5.047v4.156h-5.047Zm0 0"/></clipPath><clipPath id="e"><path d="M27.246 7.559h55.395v62.129H27.246Zm0 0"/></clipPath><clipPath id="f"><path d="M54.031 38.457h3.742v3.742h-3.742Zm0 0"/></clipPath><clipPath id="g"><path d="M57.773 40.328c0 .246-.046.488-.144.715q-.142.346-.406.61a1.8 1.8 0 0 1-.606.402q-.346.145-.715.144-.374 0-.718-.144a1.85 1.85 0 0 1-1.012-1.012 1.9 1.9 0 0 1-.14-.715 1.85 1.85 0 0 1 .546-1.324 1.9 1.9 0 0 1 .606-.406 1.89 1.89 0 0 1 2.039.406q.264.264.406.61.145.339.144.714m0 0"/></clipPath><clipPath id="i"><path d="M.195 1H129v5.902H.195Zm0 0"/></clipPath><clipPath id="h"><path d="M0 0h130v7H0z"/></clipPath></defs><g clip-path="url(#a)" transform="translate(83 36)"><path d="M3.593 17.495q0 .316-.047.672-.033.346-.11.594c-.03.105.009.226.126.36.113.132.265.14.453.015q.373-.294.734-.734.359-.45.5-1 .122-.387.25-1.547.075-.529.11-1.11.043-.575.078-1.11v-1.28q0-.797.015-1.703c0-.602.008-1.223.032-1.86q.03-.966.046-1.781a45 45 0 0 1 2.016 4.703 67 67 0 0 1 1.656 5.203q.14.551.532 1.078.404.516.984.516h.172q.359 0 .687-.281.342-.295.672-.766c.27-.394.578-.86.922-1.39q.528-.797.984-1.688.591-1.154 1.235-2.5.655-1.358 1.234-2.656c0 .437.004.867.016 1.28q.014.628.015 1.173v1.094q.014.502.016.906v4.453c0 .305.11.562.328.781q.329.328.89.328a.99.99 0 0 0 .798-.36q.311-.355.312-.858V5.37q-.002-.575-.297-1.203a4 4 0 0 0-.734-1.125 3.2 3.2 0 0 0-1.125-.75q-.674-.264-1.094-.265-.328 0-.469.187a.56.56 0 0 0-.125.328q-.002.329.266.656c.082.118.172.235.266.36q.153.175.312.39-.002.206-.062.594a3.5 3.5 0 0 1-.188.781 38 38 0 0 1-.656 1.782q-.362.937-.766 1.922l-.89 2.062a69 69 0 0 0-.875 2.11q-.11.281-.25.593-.129.3-.282.594-.158.328-.312.656-.142.316-.266.578c-.105-.25-.214-.523-.328-.828q-.158-.45-.328-.906a51 51 0 0 0-1.094-2.344q-.562-1.125-1.218-2.25a44 44 0 0 0-1.438-2.375 203 203 0 0 0-1.734-2.64q-.035.002-.11-.079a11 11 0 0 0-.328-.484 2.6 2.6 0 0 0-.375-.437 3.1 3.1 0 0 0-1.015-.579q-.55-.187-.86-.187-.298.001-.484.172-.174.158-.172.312 0 .159.062.328.06.158.172.297.094.19.203.344.125.142.22.266c.1.156.187.382.25.672q.106.44.124.843-.002.766.031 1.89.03 1.125.079 2.25.03 1.114.046 2.079.03.957.047 1.39.03.534.047 1.173.03.644.063 1.234 0 .581.015 1.062c.008.313.016.54.016.672m21.97-.359q-.673.065-1.36.078h-1.218q-.221.001-.344.313-.11.297.125.578.123.159.344.406.232.252.5.469a2 2 0 0 0 .422.265c.219.082.46.082.734 0q.827-.232 1.953-.312 1.137-.077 1.954-.078.123 0 .28.03.153.036.329.048.154.065.312.078h.297q.248 0 .594-.328.342-.327.344-.781a.73.73 0 0 0-.203-.5 2.2 2.2 0 0 0-.438-.407q-.58-.358-.937-.36-.27.002-.657.126a4 4 0 0 0-.359.094q-.188.065-.375.093v-3.546q-.002-.827-.016-1.922V6.636q-.001-1.265.016-2.406h.61q.122 0 .28.03.154.019.313.048.14.035.297.047h.281q.294.002.563-.313.265-.309.265-.765 0-.563-.562-.938-.55-.375-.906-.375-.3.001-.75.125a7 7 0 0 1-.844.14q-.831.158-1.984.25-1.142.08-2.157.079-.206.001-.312.265-.094.27.094.579.14.346.53.734.39.376.673.453c.082.031.195.055.343.063a.76.76 0 0 0 .391-.063.3.3 0 0 0 .094-.016.3.3 0 0 0 .11-.046h.124a.5.5 0 0 0 .11-.047c.007.812.02 1.64.03 2.484q.03 1.266.063 2.422.031 1.16.032 2.156c.007.656.015 1.184.015 1.578Zm9.404.844q-.035.297-.063.578-.015.282-.062.453a.6.6 0 0 0 0 .281q.03.17.172.172.527-.001.937-.625.201-.328.344-.61.141-.292.234-.562a7.6 7.6 0 0 0 2.141 1.172q1.2.422 2.719.422 1.061-.002 2.047-.344a5.4 5.4 0 0 0 1.734-1.015 4.8 4.8 0 0 0 1.234-1.532 4.35 4.35 0 0 0 .47-2c0-1.101-.306-2.031-.907-2.781a6 6 0 0 0-2.188-1.75q.936-.528 1.485-1.312.562-.78.562-1.641 0-1.97-1.453-3.14-1.454-1.186-3.828-1.188-1.03.001-1.922.265-.878.253-1.328.5a1.1 1.1 0 0 0-.36.391q-.126.234-.171.469a6 6 0 0 0-.328-.438c-.118-.144-.235-.297-.36-.453a3.2 3.2 0 0 0-1.156-.734q-.69-.265-1.234-.266a.77.77 0 0 0-.5.156.42.42 0 0 0-.188.344q-.001.205.11.375.107.174.296.36.17.205.391.406a3 3 0 0 1 .39.453q.094.206.204.594.122.39.156.765v.532q-.001.376.016 1.015.03.609.047 1.266l.062 1.39q.012.704.047 1.36c.02.437.035.867.047 1.281q.03 1.188.078 1.469.03.438.047 1 .03.55.047 1.125.03.563.03 1.062zm2.125-12.97q.153.189.453.188.169 0 .484-.093.33-.106.704-.266.357-.123.703-.234.358-.124.64-.125.996.002 1.64.203.657.19 1.032.484.358.299.5.719.154.423.156.875c0 .437-.246.93-.734 1.469q-.705.784-2.453 1-.33.002-.578.015a5 5 0 0 1-.344.016.9.9 0 0 0-.516.36q-.204.268-.203.468 0 .644.328.813c.22.117.407.171.563.171h1.078c.125-.007.234-.015.328-.015q1.013 0 1.703.312.686.3 1.078.75.435.47.61 1.016.187.55.187 1.031 0 1.642-1.172 2.469-1.158.813-2.656.812-2.174 0-3.812-1.03c.05-.345.086-.696.109-1.063q.045-.56.063-1.016v-2.937c0-.438.007-.891.03-1.36V8.667q-.001-.669.032-1.297.045-1.263.078-1.75c0-.101-.008-.203-.015-.297a3 3 0 0 1-.016-.312m15.482 12.125q-.673.065-1.359.078h-1.219q-.221.001-.343.313-.111.297.125.578.122.159.343.406c.157.168.32.324.5.469a2 2 0 0 0 .422.265c.219.082.461.082.735 0q.826-.232 1.953-.312 1.138-.077 1.953-.078.123 0 .281.03.153.036.328.048.154.065.313.078h.297q.247 0 .593-.328.342-.327.344-.781a.73.73 0 0 0-.203-.5 2.2 2.2 0 0 0-.438-.407q-.58-.358-.937-.36-.27.002-.656.126a4 4 0 0 0-.36.094q-.188.065-.375.093v-3.546q-.002-.827-.015-1.922V6.636q0-1.265.015-2.406h.61q.122 0 .281.03.154.019.312.048.14.035.297.047h.282q.292.002.562-.313.265-.309.266-.765 0-.563-.563-.938-.55-.375-.906-.375-.3.001-.75.125a7 7 0 0 1-.844.14q-.83.158-1.984.25-1.142.08-2.156.079-.207.001-.313.265-.093.27.094.579.14.346.531.734.389.376.672.453c.082.031.195.055.344.063a.76.76 0 0 0 .39-.063.3.3 0 0 0 .094-.016.3.3 0 0 0 .11-.046h.124a.5.5 0 0 0 .11-.047q.013 1.218.031 2.484.03 1.266.063 2.422.03 1.16.03 2.156.015.986.016 1.578Zm22.286-6.234v1.468q-.001.377.016.719.013.347.015.594v4.422q0 .454.282.78c.195.22.5.329.906.329q.56 0 .922-.422.359-.434.36-1.344c0-.101-.013-.218-.032-.343a6 6 0 0 1-.063-.47 11 11 0 0 1-.062-.624 22 22 0 0 1-.016-.938v-4.078q1.219-1.358 2.406-2.781 1.202-1.435 2.016-2.484.45-.56.469-1.297.013-.731-.219-1.235a2.6 2.6 0 0 0-.36-.609 11 11 0 0 0-.468-.578 4 4 0 0 0-.547-.406q-.269-.172-.437-.172-.331 0-.485.172a.58.58 0 0 0-.156.406c0 .086.023.203.078.36.05.148.102.296.156.452q.077.252.125.485a.8.8 0 0 1 0 .39q-.095.316-.25.579l-.156.296a4 4 0 0 0-.125.235 93 93 0 0 1-1.406 1.844q-.815 1.047-1.719 2.171c-.562-.8-1.164-1.644-1.797-2.53a113 113 0 0 0-1.703-2.345q-.72-.871-1.61-1.14a6.2 6.2 0 0 0-1.765-.266q-.564.001-.812.266-.251.27-.25.515 0 .222.14.391c.102.106.235.203.39.297q.219.142.454.266.247.11.453.187.293.175.563.438.262.268.578.625.373.502.875 1.14.514.644 1.047 1.375.543.72 1.093 1.469.562.736 1.094 1.39m9.637-.328q-.001 2.408.625 4.047.64 1.641 1.672 2.672a6.2 6.2 0 0 0 2.281 1.5q1.279.452 2.562.453 1.453.001 2.641-.625a6.1 6.1 0 0 0 2.047-1.781q.855-1.108 1.312-2.656.47-1.56.47-3.375-.002-1.796-.5-3.344-.505-1.56-1.36-2.703a6.6 6.6 0 0 0-2.031-1.797 4.93 4.93 0 0 0-2.47-.656q-1.75.002-3.109.719a7.2 7.2 0 0 0-2.28 1.906 8.3 8.3 0 0 0-1.391 2.656 9.8 9.8 0 0 0-.47 2.984m2.515-.203q0-1.03.297-2.11a6.5 6.5 0 0 1 .875-1.937 4.6 4.6 0 0 1 1.391-1.421q.856-.563 1.969-.563.809 0 1.531.516.717.516 1.25 1.375.529.861.828 2.015a9 9 0 0 1 .313 2.407c0 1.074-.118 2.015-.344 2.828q-.344 1.218-.906 2.015-.552.815-1.266 1.219-.704.408-1.406.406a4.3 4.3 0 0 1-1.719-.343q-.815-.359-1.438-1.172c-.43-.54-.765-1.239-1.015-2.094q-.361-1.295-.36-3.14m22.544 2.484q.233.129.546.14c.207 0 .415-.023.625-.078q.34-.047.657-.14.091.205.172.406.076.205.125.422.074.532.156 1.187.091.645.172 1.313c-.418.375-.922.68-1.516.906a5.4 5.4 0 0 1-1.89.328 4.17 4.17 0 0 1-2.047-.516 4.9 4.9 0 0 1-1.594-1.39q-1.423-1.858-1.422-4.625 0-1.624.422-2.797.421-1.17 1.078-1.938c.414-.5.883-.867 1.406-1.109q.78-.375 1.5-.375c.383 0 .785.04 1.203.11q.64.11 1.172.421c.219.137.461.313.735.532q.42.327.859.656.42.328.828.562.406.236.734.219a1 1 0 0 0 .735-.328q.328-.327.328-1.094 0-.246-.078-.75a9 9 0 0 0-.235-1.047 3.3 3.3 0 0 0-.453-.875q-.27-.375-.703-.375-.3.002-.406.453a4 4 0 0 0-.094.75q0 .41-.078.47-.081.064-.156-.063-.58-.53-1.735-1.235-1.096-.656-2.703-.703-1.378.002-2.656.594a7 7 0 0 0-2.25 1.703q-.986 1.112-1.578 2.688-.58 1.58-.578 3.546-.001 1.519.484 3.032a8.2 8.2 0 0 0 1.438 2.703 7.2 7.2 0 0 0 2.343 1.969c.938.492 2.008.734 3.22.734.812 0 1.53-.133 2.155-.39a5.9 5.9 0 0 0 1.657-1q0 .437.015.859c.02.273.032.53.032.78q-.001.188.25.298.262.105.484-.094a1.75 1.75 0 0 0 .547-.625q.234-.406.375-.734.124-.359.219-.97c.07-.413.113-.827.125-1.233v-2.766a1 1 0 0 0-.188-.578 2.4 2.4 0 0 0-.469-.516h.203c.22 0 .493.043.829.125q.404.11 1.046.11.373 0 .688-.282a.89.89 0 0 0 .312-.687q0-.48-.562-.938-.55-.45-1.328-.468-.281.002-.656.062-.375.066-.75.125-.393.08-.75.172-.345.095-.563.11a14 14 0 0 1-1.86.202q-1.002.034-1.765.032-.346.001-.453.265c-.063.18.004.39.203.64q.232.299.64.626.423.316.798.469m8.693 4.797a3 3 0 0 1-.188.359 5 5 0 0 1-.187.266q-.111.127-.203.25a5 5 0 0 1-.157.203.47.47 0 0 0-.031.343q.06.172.14.172.656 0 1.22-.375.573-.387 1.03-.875.14-.17.438-.562c.195-.258.406-.551.625-.875q.622-.997 1.125-1.86l.39-.796c.227.105.47.195.72.265.257.063.5.094.718.094q.216 0 .485-.063a9 9 0 0 0 .547-.14l.593-.203q.31-.124.625-.22c.27-.1.602-.202 1-.296q.592-.141 1.188-.234.357 1.125.703 2.25.34 1.113.64 2.25.123.58.532 1.109.405.532.937.531c.375 0 .664-.101.875-.297q.312-.311.313-.921-.001-.687-.266-1.532a23 23 0 0 0-.719-1.906q-.533-1.155-1.062-2.375a51 51 0 0 0-1.156-2.453 70 70 0 0 0-1.375-2.563 51 51 0 0 0-1.641-2.671 2.5 2.5 0 0 0-.078-.407 4 4 0 0 0-.125-.437q-.205-.481-.703-1.063-.487-.591-1.016-.89a1 1 0 0 0-.234-.032 2 2 0 0 0-.219-.015q-.361.002-.406.297a.9.9 0 0 0-.016.375c.031.136.07.293.125.468q.075.223.156.516.094.283.141.594-.002.222-.062.61-.066.375-.22.78a78 78 0 0 1-1.421 3.875 238 238 0 0 1-1.75 4.313 46 46 0 0 1-2.031 4.14m7.437-10.97q.592 1.22 1.14 2.485.546 1.252 1.032 2.563a54 54 0 0 1-2.39.422q-1.207.188-2.313.265.656-1.419 1.266-2.797.61-1.372 1.265-2.937m0 0"/></g><g clip-path="url(#b)"><path fill-rule="evenodd" d="M148.41 48.785q.037.022.09.063c.023.015.07.062.094.062.011-.004.054-.035.074-.047a.3.3 0 0 0 .062-.058c.106-.098.184-.211.293-.313.016-.015.059-.043.055-.066 0-.008-.039-.043-.055-.059-.128-.12-.25-.238-.375-.347-.02-.02-.05-.055-.074-.051-.027.004-.047.05-.062.066-.094.106-.188.2-.282.309-.027.031-.105.101-.105.133 0 .02.035.07.055.09.066.093.144.148.23.218"/></g><g clip-path="url(#c)"><path fill-rule="evenodd" d="M147.914 49.18c.152.172.36.332.629.379a1.7 1.7 0 0 0 .676-.043c.066-.02.133-.032.195-.059.172-.07.332-.168.477-.277.039-.024.117-.09.117-.133.004-.043-.047-.11-.07-.145-.075-.117-.16-.195-.247-.304-.011-.02-.035-.055-.05-.059-.028-.004-.07.035-.102.059-.035.023-.062.05-.086.066q-.106.07-.187.129c-.203.133-.453.25-.782.207a.9.9 0 0 1-.46-.207 1.3 1.3 0 0 1-.333-.36c-.011-.023-.035-.074-.054-.085q-.007.002-.008.004c-.027.011-.024.097-.024.132.024.293.165.532.31.696"/></g><g clip-path="url(#d)"><path fill-rule="evenodd" d="M150.344 50.414c-.106-.262-.246-.465-.461-.617a.7.7 0 0 0-.235-.129 1.2 1.2 0 0 0-.355-.016 1.1 1.1 0 0 0-.313.07c-.175.079-.3.235-.394.376-.137.207-.258.523-.441.707a.37.37 0 0 1-.262.117c-.14.004-.23-.055-.332-.102-.02-.008-.082-.023-.082-.039 0-.011.05-.039.07-.05a.8.8 0 0 0 .23-.22c.047-.062.09-.14.122-.21.07-.156.14-.336.113-.547a.87.87 0 0 0-.172-.426.74.74 0 0 0-.328-.27 1.05 1.05 0 0 0-.422-.05 1.9 1.9 0 0 0-1.055.375c-.03.023-.109.07-.109.097 0 .016.027.051.043.075.094.16.172.293.266.449.011.023.03.07.05.07.008.004.047-.02.07-.031q.247-.137.505-.227c.113-.039.214-.074.335-.078.141-.004.235.024.32.098a.5.5 0 0 1 .13.195c.015.09-.035.153-.078.211-.106.137-.29.203-.5.215a2.3 2.3 0 0 1-.371-.016c-.024-.004-.102-.02-.118-.007-.011.015.008.093.016.12.008.048.023.079.035.11.024.086.047.152.078.215.047.098.09.191.156.277.016.024.047.07.07.074.028.008.067-.003.095-.003.238-.028.464.015.578.128.101.098.164.286.152.47a.58.58 0 0 1-.203.39.8.8 0 0 1-.422.172 1.7 1.7 0 0 1-.543-.032c-.227-.05-.434-.136-.559-.285-.02-.023-.043-.043-.058-.066a2.3 2.3 0 0 1-.227-.41c-.086-.192-.148-.457-.226-.664-.008-.02-.02-.082-.047-.078-.035.003-.031.093-.031.14a3.5 3.5 0 0 0 .082.762c.023.094.058.176.086.258.058.168.148.312.238.449s.2.258.328.355c.262.207.543.364 1.031.34.051-.004.102-.015.149-.023a.75.75 0 0 0 .367-.149c.3-.23.531-.523.523-1.066a1.5 1.5 0 0 0-.058-.395c-.028-.097-.078-.191-.118-.28-.019-.052.004-.04.075-.04.187 0 .41.016.531-.05a.7.7 0 0 0 .195-.188c.055-.07.117-.145.164-.223q.031-.059.075-.117c.074-.117.144-.25.238-.34a.47.47 0 0 1 .293-.144.6.6 0 0 1 .285.043c.059.03.094.097.117.156.094.187.121.437.098.71a.94.94 0 0 1-.406.7c-.102.07-.239.137-.383.164a.67.67 0 0 1-.45-.066.7.7 0 0 1-.195-.196c-.035-.054-.078-.12-.094-.191-.007-.023-.011-.113-.023-.117-.012-.012-.027.027-.027.027-.075.14-.063.379-.028.559.036.203.098.355.192.48.031.043.058.09.097.125.137.13.301.184.52.2a.93.93 0 0 0 .566-.15c.149-.089.243-.23.336-.378.098-.152.149-.352.188-.531.094-.41.05-.946-.082-1.262"/></g><g clip-path="url(#e)"><path d="M31.2 59.605c-.25-.3-.52-.183-.766-.144a.7.7 0 0 0-.293.133c-.196.152-.391.125-.61.047a.7.7 0 0 0-.414-.036c-.433.137-.644.102-.863-.304-.238-.446-.414-.922-.61-1.39-.101-.25-.19-.513-.285-.77a.85.85 0 0 1 .118-.868c.136-.199.27-.191.414 0q.317.429.3.961c0 .36.13.66.368.961-.032-.504-.082-.976-.082-1.445 0-.3.066-.602.093-.902q.041-.374.04-.754c-.012-.356.109-.664.28-.973.516.266 1.005.535 1.508.77.762.351 1.532.691 2.305 1.004.465.19.922.148 1.387-.09 1.566-.793 3.086-1.66 4.504-2.703.422-.313.863-.61 1.312-.887.922-.578 1.574-1.442 2.262-2.246.195-.23.297-.621.281-.93-.054-1.008.184-1.957.45-2.914.144-.516.206-1.059.277-1.59.105-.754.21-1.512.27-2.273.042-.602.081-1.215.007-1.813-.18-1.554-.25-3.101-.02-4.652.09-.59.106-1.195.235-1.777q.123-.475.469-.82a11 11 0 0 1 1.281-1.114c.445-.336.992-.352 1.523-.36.805-.011 1.5-.34 2.18-.718a32 32 0 0 0 1.844-1.137q.374-.229.648-.574c.727-1 1.13-2.113 1.106-3.367-.008-.344.027-.688.023-1.028 0-.105-.035-.254-.11-.308-.335-.254-.46-.625-.593-.992-.117-.336-.223-.672-.352-.997a.24.24 0 0 0-.203-.128q-.234.017-.457.082c-.238.054-.441-.082-.437-.329.012-.433-.035-.835-.367-1.164-.078-.078-.086-.234-.098-.359-.016-.215.008-.434-.012-.645-.027-.289 0-.523.266-.722.11-.086.156-.313.148-.473-.02-.535-.105-1.07-.109-1.605-.012-1.246.36-2.395.969-3.469q.188-.293.476-.5c.18-.14.328-.27.344-.516q0-.153.102-.265c.293-.254.254-.575.3-.91.051-.41.075-.774-.066-1.18-.156-.453-.02-.899.312-1.281.141-.168.204-.399.301-.602l-.074-.043c.016-.012.035-.035.047-.031.383.113.68-.067.953-.297.715-.594 1.527-.504 2.348-.36.187.036.3.145.261.352-.039.211.043.375.223.504.29.207.43.438.25.82-.148.32.023.63.469.91.441.278.586.665.504 1.172-.016.075.058.192.129.254.547.453 1.129.871 1.632 1.383.477.48.707 1.117.747 1.805.062 1.086.105 2.172.18 3.254.01.16.155.304.214.468.063.18.137.372.129.555-.027.457-.117.91-.152 1.367-.047.582-.364 1.024-.7 1.457-.023.028-.062.067-.09.063-.328-.04-.39.226-.46.43-.246.671-.504 1.332-.926 1.93-.113.16-.113.406-.145.616-.144.993-.015 1.977.133 2.954.074.511.438.89.793 1.242.961.957 2.156 1.41 3.477 1.593q.387.072.757.208c.692.222 1.415.39 2.07.699 1.04.48 1.634 1.34 1.763 2.492.078.68.156 1.363.222 2.047.067.68-.055 1.34-.18 2.012-.168.89-.343 1.792-.378 2.699-.055 1.355 0 2.718.035 4.078.023.969.058 1.937.136 2.902.043.516.118 1.047.305 1.52.137.351.465.636.73.93.325.359.704.675 1.012 1.05a7.9 7.9 0 0 0 2.098 1.817c1.258.746 2.504 1.511 3.793 2.18.504.265 1.121.312 1.691.445a.28.28 0 0 0 .25-.106c.285-.445.746-.64 1.2-.808a6.1 6.1 0 0 0 1.87-1.13 1 1 0 0 1 .122-.085c.43-.266.55-.223.734.246.277.715.563 1.433.848 2.148q.281-.04.562-.027c.075.008.2.148.192.21a9 9 0 0 1-.235 1.36c-.058.207-.261.375-.398.559-.102.14-.227.265-.297.422-.148.316-.41.46-.73.324-.32-.137-.606-.121-.836.172-.125.164-.27.183-.465.101a5 5 0 0 0-.64-.18l-.044.067q.266.342.567.648c.726.672.992 1.485.753 2.446-.394 1.601-1.398 2.793-2.832 3.465-2.12.996-4.332 1.82-6.695 2.086-.68.078-1.367.07-2.05.105-.192.008-.38.027-.567.043.055.285.11.512.137.738.03.32-.196.52-.524.48-.91-.1-1.824-.214-2.738-.292-.344-.031-.695.031-1.043.039-.195 0-.39-.027-.59-.027-2.969.015-5.937.058-8.906.035-1.348-.012-2.695-.192-4.047-.227-2.684-.078-5.371-.113-8.055-.164-1.136-.02-2.277-.023-3.414-.066a4 4 0 0 1-.968-.207c-.915-.282-1.82-.59-2.735-.875-1.719-.54-3.387-1.184-4.781-2.364-.219-.183-.438-.453-.508-.722-.262-.985-.469-1.98-.68-2.973a.7.7 0 0 1 .055-.371c.211-.57.535-1.043 1.133-1.277.129-.055.246-.125.402-.204m2.757-1.003c1.14-.079 2.281-.18 3.422-.215a13 13 0 0 1 2.316.093c1.45.22 2.89.524 4.332.797.496.094.989.141 1.477-.035a.34.34 0 0 0 .176-.117c.125-.187.215-.406.355-.586.426-.527.817-1.07 1.024-1.734.132-.426.332-.828.52-1.242.335-.754.714-1.5 1.015-2.274.23-.586.46-1.203.386-1.852-.035-.324-.203-.628-.27-.953-.214-1.043-.433-2.09-.6-3.14-.184-1.117-.57-2.2-.497-3.36.016-.207-.156-.425-.238-.64l-.113.027q-.016.171-.043.336c-.082.57-.18 1.137-.258 1.707-.086.629-.18 1.258-.227 1.89-.07.919-.101 1.84-.156 2.758-.062 1.141-.336 2.22-.941 3.204-.078.125-.125.265-.203.39q-.173.27-.38.516c-.48.55-1.124.84-1.8 1.062-2.43.813-4.863 1.618-7.293 2.434-.707.238-1.39.516-2.004.93Zm31.371.867c.285-.055.621-.11.953-.188 1.266-.289 2.528-.617 3.801-.879 1.379-.28 2.766-.586 4.191-.394q.12.005.239-.008l.015-.086a2 2 0 0 0-.27-.125q-.999-.294-2-.578a21.4 21.4 0 0 1-5.292-2.285c-.535-.324-1.121-.563-1.676-.848-.543-.281-.93-.715-1.05-1.308a39 39 0 0 1-.47-2.895c-.097-.797-.093-1.602-.167-2.402-.082-.899-.196-1.79-.29-2.688a5 5 0 0 1 0-.586l-.085-.011q-.135.355-.223.722c-.07.344-.098.695-.149 1.043-.18 1.129-.355 2.258-.542 3.387-.067.394-.165.781-.235 1.172-.035.203-.101.414-.07.61q.206 1.353.738 2.62c.524 1.188 1.008 2.395 1.52 3.59.222.52.46 1.035.703 1.543q.165.305.36.594m0 0"/></g><g clip-path="url(#f)"><g clip-path="url(#g)"><path d="M54.031 38.457v3.742h3.742v-3.742Zm0 0"/></g></g><g clip-path="url(#h)" transform="translate(87 60)"><g clip-path="url(#i)"><path d="M.986 1.944q.03.016.063.015h.14q.03-.014.063-.015.139-.013.297-.032c.101-.007.207-.02.312-.03q.045.109.063.296V2.6c.007.168.015.336.015.5.008.168.016.324.016.469q0 .22.015.312v.281c.008.094.016.188.016.282v.39c0 .055-.008.106-.016.157a.7.7 0 0 1-.015.14c0 .024.008.047.031.078q.046.06.11 0a.8.8 0 0 0 .171-.156.7.7 0 0 0 .11-.234 2 2 0 0 0 .031-.141l.031-.219q-.001-.122.016-.25.014-.139.015-.265v-.36q-.001-.233.016-.484v-.5q.014-.246.016-.422a.9.9 0 0 0-.063-.344q.153-.014.313-.015h.297q.06.002.109.015h.11q.046.02.093.031h.125q.107 0 .203-.046.094-.06.094-.188c0-.082-.055-.156-.156-.219a.5.5 0 0 0-.297-.109c-.074 0-.164.008-.266.016q-.142.018-.312.03-.16.035-.313.063a2 2 0 0 1-.25.016 7 7 0 0 1-.36.031h-.827q-.19 0-.344-.015-.095 0-.125.078-.034.081.031.14.17.176.422.282m5.671 2.375V2.944a.5.5 0 0 0-.062-.235.7.7 0 0 0-.14-.203.7.7 0 0 0-.235-.125.7.7 0 0 0-.25-.047q-.081 0-.11.047a.2.2 0 0 0-.015.078q-.001.035.016.063c.007.023.02.047.03.078a.3.3 0 0 1 .048.078q.029.035.062.047.013.033.031.11.013.064.032.14v.234c.007.086.015.168.015.25v.266c.008.086.016.156.016.219q-.002.362-.203.578c-.125.156-.274.234-.438.234a.58.58 0 0 1-.406-.14c-.086-.083-.125-.258-.125-.532V3.57q-.001-.295.016-.547a.6.6 0 0 0-.203-.469q-.049-.03-.11-.062a.7.7 0 0 0-.265-.063c-.043-.008-.075-.016-.094-.016a.2.2 0 0 0-.094.032q-.033.034-.031.062a.2.2 0 0 0 .047.125c.007.024.02.043.03.063q.03.017.048.046.03.049.047.125c.007.055.02.106.03.157v.281q0 .141.017.281v.25c.007.086.015.153.015.203q-.002.298.078.532.077.221.219.39.293.315.75.313.123 0 .234-.047c.07-.02.141-.05.204-.094q.2-.123.25-.234v.172q0 .081.062.14.077.061.219.063a.26.26 0 0 0 .203-.094q.094-.107.094-.312c0-.032-.008-.055-.016-.079v-.109a.5.5 0 0 1-.016-.14zm3.407-.359q.2.111.454.171.248.064.53.063.17 0 .345-.047a.9.9 0 0 0 .28-.157.56.56 0 0 0 .204-.234.64.64 0 0 0 .078-.312.84.84 0 0 0-.11-.375 1 1 0 0 0-.234-.328 1.8 1.8 0 0 0-.36-.204 1.3 1.3 0 0 0-.53-.125 1.15 1.15 0 0 0-.875.391q-.176.188-.282.453-.11.252-.109.578c0 .18.023.356.078.531q.076.253.235.454.17.204.406.328a1.3 1.3 0 0 0 .953.062q.171-.045.312-.125.123-.094.235-.187.106-.107.187-.203a.15.15 0 0 0 .032-.125q-.001-.059-.032-.094-.033-.047-.078-.047-.047-.013-.078.016-.141.158-.375.28a.97.97 0 0 1-.531.11.66.66 0 0 1-.516-.218q-.189-.235-.219-.657m0-.282q.048-.434.235-.61a.56.56 0 0 1 .406-.187.65.65 0 0 1 .438.156.49.49 0 0 1 .187.391.34.34 0 0 1-.11.266.34.34 0 0 1-.25.093 3 3 0 0 1-.468 0 2 2 0 0 1-.438-.109m3.07-.546q0-.106.063-.187a.27.27 0 0 1 .218-.094q.106.002.266.11a4 4 0 0 0 .266.187q.06.047.125.078a.6.6 0 0 0 .14.015q.107.001.172-.062.076-.062.078-.203a.7.7 0 0 0-.094-.36q-.08-.17-.218-.171c-.055 0-.078.03-.078.093v.219h.015a.9.9 0 0 0-.703-.328 1 1 0 0 0-.406.078.9.9 0 0 0-.25.188.7.7 0 0 0-.156.234.8.8 0 0 0-.032.219.6.6 0 0 0 .078.312.8.8 0 0 0 .22.235q.106.093.265.172.152.063.281.109.28.111.39.234.125.112.126.313a.32.32 0 0 1-.14.265.5.5 0 0 1-.329.11q-.223.001-.469-.11a1.4 1.4 0 0 1-.422-.312.12.12 0 0 0-.109-.031.1.1 0 0 0-.078.03.2.2 0 0 0-.047.095q0 .064.062.109.094.129.204.234.123.094.28.188.296.17.626.172c.281 0 .52-.07.719-.219a.8.8 0 0 0 .218-.25.6.6 0 0 0 .078-.297.6.6 0 0 0-.078-.312.9.9 0 0 0-.172-.25 2 2 0 0 0-.265-.188 5 5 0 0 0-.281-.14q-.316-.106-.438-.22a.33.33 0 0 1-.125-.265m2.341 3q-.002.076-.016.14c0 .04-.008.079-.015.11v.063q.011.046.046.046.06-.002.125-.062a.5.5 0 0 0 .11-.125 2 2 0 0 0 .078-.156 1 1 0 0 0 .062-.125q.03-.13.047-.328.014-.113.016-.22c.008-.062.016-.12.016-.171V5.1q.153.094.343.14.187.047.39.047.547 0 .923-.39a1.6 1.6 0 0 0 .25-.438c.07-.164.11-.351.11-.562 0-.219-.032-.414-.095-.594a1.3 1.3 0 0 0-.265-.453 1.1 1.1 0 0 0-.39-.297 1.1 1.1 0 0 0-.47-.11 1 1 0 0 0-.265.047 2 2 0 0 0-.281.094q-.127.065-.22.14a.23.23 0 0 0-.077.173l-.047-.063-.031-.047a.14.14 0 0 0-.047-.046.3.3 0 0 1-.032-.063.86.86 0 0 0-.562-.234.2.2 0 0 0-.11.03q-.045.034-.046.079 0 .047.015.094.03.033.078.078.048.048.094.11c.031.03.055.07.078.109a.3.3 0 0 1 .047.125q.03.08.031.172-.001.188.016.453c.008.18.016.359.016.547.007.187.015.37.015.546q.013.27.032.438v.234c.007.094.015.18.015.266.008.082.016.16.016.234zm.484-3.047q.044.094.125.094a.2.2 0 0 0 .11-.031q.074-.03.156-.078c.05-.032.101-.055.156-.079a.6.6 0 0 1 .672.203c.133.15.203.376.203.688q-.019.438-.219.719-.235.3-.547.281a1.7 1.7 0 0 1-.343-.031 1.5 1.5 0 0 1-.328-.094v-.422q-.002-.215.015-.437zm3.156 1.297c0-.125.039-.226.125-.312q.124-.141.359-.141.188 0 .375.047.2.035.375.094v.625a1 1 0 0 1-.313.125 1.4 1.4 0 0 1-.359.046q-.299 0-.437-.14a.5.5 0 0 1-.125-.344m1.234.64c0 .075.023.137.078.188q.075.061.203.063a.27.27 0 0 0 .188-.078.33.33 0 0 0 .078-.22l-.016-1.327q0-.232-.094-.453a1.4 1.4 0 0 0-.218-.391 1.2 1.2 0 0 0-.36-.266.94.94 0 0 0-.437-.109q-.188 0-.328.047-.143.048-.25.11-.113.08-.219.171a4 4 0 0 1-.234.156.2.2 0 0 0-.079.172c.008.074.079.11.204.11a.8.8 0 0 0 .25-.032l.218-.093q.094-.059.188-.094a.6.6 0 0 1 .25-.047q.201.019.39.219.188.188.188.547v.046a2 2 0 0 0-.39-.125 4 4 0 0 0-.423-.062q-.468.002-.75.25a.8.8 0 0 0-.265.594c0 .261.101.476.312.64q.294.235.782.235c.125 0 .25-.024.375-.063q.199-.076.359-.187m1.931-1.188q0-.263.063-.437.076-.187.172-.297a.54.54 0 0 1 .218-.156.55.55 0 0 1 .235-.063q.093.001.203.031.124.018.219.047.058.047.14.094.075.047.156.094.06.047.125.078.06.033.125.031c.032 0 .07-.02.125-.062a.27.27 0 0 0 .094-.22 2 2 0 0 1-.031-.155 2 2 0 0 0-.047-.188.7.7 0 0 0-.11-.11.16.16 0 0 0-.124-.062q-.049 0-.078.094a.6.6 0 0 0-.016.125v.078q-.002.018-.016 0a1 1 0 0 0-.328-.219.87.87 0 0 0-.453-.125c-.156 0-.312.04-.469.11a1.1 1.1 0 0 0-.39.281 1.3 1.3 0 0 0-.297.453q-.11.252-.11.578-.018.27.063.531.093.253.281.454.154.204.406.328.265.124.594.125c.125 0 .242-.024.36-.063q.17-.045.312-.125a1 1 0 0 0 .234-.172q.107-.107.172-.203a.2.2 0 0 0 .047-.125q-.001-.074-.031-.11c-.024-.03-.047-.046-.078-.046q-.035-.013-.063.016-.157.158-.39.28a.97.97 0 0 1-.532.11.72.72 0 0 1-.562-.265q-.235-.265-.219-.735m2.572-2.359q-.001.175.11.281.106.11.265.11a.28.28 0 0 0 .219-.11c.07-.07.11-.16.11-.266a.3.3 0 0 0-.126-.25c-.074-.07-.14-.109-.203-.109-.117 0-.21.04-.281.11a.36.36 0 0 0-.094.234m.094 3.437q0 .112.062.188c.051.055.125.078.22.078.07 0 .128-.023.171-.078a.33.33 0 0 0 .078-.219V3.1a.7.7 0 0 0-.047-.25.9.9 0 0 0-.156-.266.7.7 0 0 0-.234-.156.5.5 0 0 0-.203-.047.15.15 0 0 0-.11.047q-.047.033-.047.078 0 .082.063.156.029.048.062.094.03.047.063.094a.5.5 0 0 1 .015.125.2.2 0 0 1 .016.078q-.001.048.016.078v.219q.014.13.015.281.014.298.016.531Zm1.296-1.109q-.002.391.125.672.14.282.343.453c.133.117.282.203.438.266q.247.077.5.078c.156 0 .312-.04.469-.11q.234-.107.421-.296.17-.2.282-.454.107-.262.109-.578-.002-.327-.11-.578a1.6 1.6 0 0 0-.28-.453 1.25 1.25 0 0 0-.422-.281 1.05 1.05 0 0 0-.454-.11q-.315.001-.578.125c-.18.075-.328.18-.453.313a1.4 1.4 0 0 0-.297.437q-.093.252-.093.516m.578-.031q0-.34.234-.61a.7.7 0 0 1 .25-.187.7.7 0 0 1 .328-.078q.122.002.25.062.123.065.235.188.092.127.156.297.077.175.078.39 0 .234-.078.422a.9.9 0 0 1-.156.281.7.7 0 0 1-.235.188.55.55 0 0 1-.25.062.78.78 0 0 1-.578-.234q-.234-.247-.234-.781m5.164 2.359q-.002.076-.016.14c0 .04-.008.079-.015.11v.063q.011.046.046.046.06-.002.125-.062a.5.5 0 0 0 .11-.125 2 2 0 0 0 .078-.156 1 1 0 0 0 .062-.125q.03-.13.047-.328.014-.113.016-.22.014-.094.016-.171V5.1c.101.062.218.11.343.14q.187.047.39.047.547 0 .923-.39.153-.187.25-.438c.07-.164.11-.351.11-.562 0-.219-.032-.414-.095-.594a1.3 1.3 0 0 0-.265-.453 1.1 1.1 0 0 0-.39-.297 1.1 1.1 0 0 0-.47-.11 1 1 0 0 0-.265.047 2 2 0 0 0-.281.094q-.127.065-.22.14a.23.23 0 0 0-.077.173l-.047-.063-.031-.047a.14.14 0 0 0-.047-.046.3.3 0 0 1-.032-.063.86.86 0 0 0-.562-.234.2.2 0 0 0-.11.03q-.046.034-.046.079 0 .047.015.094.03.033.078.078.048.048.094.11c.031.03.055.07.078.109a.3.3 0 0 1 .047.125q.03.08.031.172-.001.188.016.453c.008.18.016.359.016.547.007.187.015.37.015.546q.013.27.032.438v.234c.007.094.015.18.015.266q.014.123.016.234zm.484-3.047c.031.063.07.094.125.094a.2.2 0 0 0 .11-.031q.074-.03.156-.078c.05-.032.101-.055.156-.079a.6.6 0 0 1 .672.203c.133.15.203.376.203.688q-.019.438-.219.719-.235.3-.547.281a1.7 1.7 0 0 1-.343-.031 1.5 1.5 0 0 1-.328-.094v-.422q-.002-.215.015-.437zm3.156 1.297c0-.125.039-.226.125-.312q.124-.141.359-.141.188 0 .375.047.2.035.375.094v.625a1 1 0 0 1-.313.125 1.4 1.4 0 0 1-.359.046q-.299 0-.437-.14a.5.5 0 0 1-.125-.344m1.234.64c0 .075.023.137.078.188q.074.061.203.063a.27.27 0 0 0 .188-.078.33.33 0 0 0 .078-.22l-.016-1.327q0-.232-.094-.453a1.4 1.4 0 0 0-.218-.391 1.2 1.2 0 0 0-.36-.266.94.94 0 0 0-.437-.109q-.188 0-.328.047c-.094.031-.18.07-.25.11q-.113.08-.22.171a4 4 0 0 1-.233.156.2.2 0 0 0-.079.172c.008.074.079.11.204.11a.8.8 0 0 0 .25-.032l.218-.093q.094-.059.188-.094a.6.6 0 0 1 .25-.047q.201.019.39.219.188.188.188.547v.046a2 2 0 0 0-.39-.125 4 4 0 0 0-.423-.062q-.468.002-.75.25a.8.8 0 0 0-.265.594c0 .261.101.476.312.64q.294.235.782.235c.125 0 .25-.024.375-.063q.199-.076.359-.187m1.619-.047q-.002.081-.016.156a.3.3 0 0 1-.016.094q-.001.045.016.062.03.031.062.032c.032 0 .067-.024.11-.063a.6.6 0 0 0 .11-.11 1.2 1.2 0 0 0 .124-.296q.012-.094.047-.328.014-.107.016-.203.014-.094.015-.188v-.375q.047-.42.25-.625.217-.217.47-.219c.062 0 .116.016.171.047.05.024.098.047.14.078q.077.048.126.094a.23.23 0 0 0 .125.031q.294 0 .296-.28 0-.076-.078-.157a1 1 0 0 0-.187-.156 1 1 0 0 0-.266-.094 1 1 0 0 0-.297-.047c-.343 0-.601.14-.765.422a.5.5 0 0 0-.063-.172.6.6 0 0 0-.125-.14.84.84 0 0 0-.547-.234.2.2 0 0 0-.109.03c-.031.024-.047.047-.047.078q-.001.048.016.094.03.048.078.078.03.047.078.094.046.048.094.11c.031.062.054.171.078.328v.203l.031.25q.014.14.016.28c.008.087.015.157.015.22v.234c.008.086.02.172.032.266zm2.919-.594a.42.42 0 0 1 .125-.312q.125-.141.36-.141.187 0 .375.047.2.035.375.094v.625a1 1 0 0 1-.313.125 1.4 1.4 0 0 1-.359.046q-.299 0-.438-.14a.5.5 0 0 1-.125-.344m1.235.64c0 .075.023.137.078.188q.074.061.203.063a.27.27 0 0 0 .188-.078.33.33 0 0 0 .078-.22l-.016-1.327q0-.232-.094-.453a1.4 1.4 0 0 0-.218-.391 1.2 1.2 0 0 0-.36-.266.94.94 0 0 0-.437-.109q-.188 0-.328.047c-.094.031-.18.07-.25.11q-.113.08-.22.171a4 4 0 0 1-.234.156.2.2 0 0 0-.078.172q.014.11.203.11a.8.8 0 0 0 .25-.032l.22-.093q.093-.059.187-.094a.6.6 0 0 1 .25-.047q.201.019.39.219.188.188.188.547v.046a2 2 0 0 0-.39-.125 4 4 0 0 0-.423-.062q-.468.002-.75.25a.8.8 0 0 0-.265.594c0 .261.101.476.312.64q.294.235.781.235c.125 0 .25-.024.375-.063q.2-.076.36-.187m3.683 1.109c0 .05-.008.098-.016.14q-.002.062-.015.11v.063q.012.046.047.046.06-.002.125-.062a.5.5 0 0 0 .11-.125 2 2 0 0 0 .077-.156 1 1 0 0 0 .063-.125q.03-.13.047-.328c.007-.075.015-.149.015-.22q.014-.094.016-.171V5.1c.101.062.219.11.344.14q.186.047.39.047.546 0 .922-.39c.102-.125.188-.27.25-.438.07-.164.11-.351.11-.562a1.8 1.8 0 0 0-.094-.594 1.3 1.3 0 0 0-.266-.453 1.1 1.1 0 0 0-.39-.297 1.1 1.1 0 0 0-.47-.11 1 1 0 0 0-.265.047 2 2 0 0 0-.281.094c-.086.043-.156.09-.219.14a.23.23 0 0 0-.078.173l-.047-.063-.031-.047a.14.14 0 0 0-.047-.046.3.3 0 0 1-.031-.063.86.86 0 0 0-.562-.234.2.2 0 0 0-.11.03q-.047.034-.047.079-.001.047.016.094.03.033.078.078.046.048.093.11c.032.03.055.07.079.109a.26.26 0 0 1 .046.125q.031.08.032.172 0 .188.015.453c.008.18.016.359.016.547q.014.281.016.546c.007.18.02.325.03.438v.234c.009.094.016.18.016.266q.014.123.016.234zm.484-3.047c.032.063.07.094.125.094a.2.2 0 0 0 .11-.031q.074-.03.156-.078c.05-.032.102-.055.156-.079a.6.6 0 0 1 .672.203c.133.15.203.376.203.688q-.018.438-.218.719-.236.3-.547.281a1.7 1.7 0 0 1-.344-.031 1.5 1.5 0 0 1-.328-.094v-.422q0-.215.015-.437zm3.156 1.297c0-.125.039-.226.125-.312q.124-.141.36-.141.187 0 .374.047.2.035.375.094v.625a1 1 0 0 1-.312.125 1.4 1.4 0 0 1-.36.046q-.297 0-.437-.14a.5.5 0 0 1-.125-.344m1.234.64q-.002.112.078.188.076.061.204.063a.27.27 0 0 0 .187-.078.33.33 0 0 0 .078-.22l-.015-1.327q0-.232-.094-.453a1.4 1.4 0 0 0-.219-.391 1.2 1.2 0 0 0-.36-.266.94.94 0 0 0-.437-.109q-.187 0-.328.047-.143.048-.25.11-.112.08-.219.171a4 4 0 0 1-.234.156.2.2 0 0 0-.078.172q.014.11.203.11a.8.8 0 0 0 .25-.032l.219-.093q.093-.059.187-.094a.6.6 0 0 1 .25-.047c.133.012.266.086.39.219q.189.188.188.547v.046a2 2 0 0 0-.39-.125 4 4 0 0 0-.422-.062q-.47.002-.75.25a.8.8 0 0 0-.266.594q-.002.393.313.64.294.235.78.235c.126 0 .25-.024.376-.063q.2-.076.36-.187m3.743-.703V2.944a.5.5 0 0 0-.063-.235.7.7 0 0 0-.14-.203.7.7 0 0 0-.235-.125.7.7 0 0 0-.25-.047q-.08 0-.109.047a.2.2 0 0 0-.016.078q-.001.035.016.063l.031.078a.3.3 0 0 1 .047.078q.03.035.063.047.014.033.03.11l.032.14v.234q.014.128.016.25v.266c.008.086.015.156.015.219q-.002.362-.203.578-.19.234-.437.234a.58.58 0 0 1-.406-.14q-.127-.123-.125-.532V3.57q-.001-.295.015-.547a.6.6 0 0 0-.203-.469q-.048-.03-.11-.062a.7.7 0 0 0-.265-.063c-.043-.008-.074-.016-.094-.016a.2.2 0 0 0-.093.032q-.034.034-.032.062a.2.2 0 0 0 .047.125q.013.035.031.063.03.017.047.046.03.049.047.125.013.082.031.157v.281q-.001.141.016.281v.25q.014.128.016.203c0 .2.023.375.078.532q.076.221.219.39.293.315.75.313.123 0 .234-.047.107-.029.203-.094.202-.123.25-.234v.172q0 .081.063.14.077.061.218.063a.26.26 0 0 0 .203-.094q.094-.107.094-.312c0-.032-.008-.055-.015-.079v-.109a.5.5 0 0 1-.016-.14zm1.374-1.188q0-.106.062-.187a.27.27 0 0 1 .219-.094q.106.002.265.11a4 4 0 0 0 .266.187q.06.047.125.078a.6.6 0 0 0 .14.015q.108.001.173-.062.077-.062.078-.203a.7.7 0 0 0-.094-.36c-.055-.113-.125-.171-.219-.171q-.08 0-.078.093v.219h.016a.9.9 0 0 0-.703-.328 1 1 0 0 0-.407.078.9.9 0 0 0-.25.188.7.7 0 0 0-.156.234.8.8 0 0 0-.031.219.6.6 0 0 0 .078.312.8.8 0 0 0 .219.235q.106.093.265.172.153.063.282.109.28.111.39.234.124.112.125.313a.32.32 0 0 1-.14.265.5.5 0 0 1-.329.11q-.222.001-.468-.11a1.4 1.4 0 0 1-.422-.312.12.12 0 0 0-.11-.031.1.1 0 0 0-.078.03.2.2 0 0 0-.047.095q0 .064.063.109.093.129.203.234.123.094.281.188.296.17.625.172c.282 0 .52-.07.72-.219a.8.8 0 0 0 .218-.25.6.6 0 0 0 .078-.297.6.6 0 0 0-.078-.312.9.9 0 0 0-.172-.25 2 2 0 0 0-.266-.188 5 5 0 0 0-.28-.14q-.317-.106-.438-.22a.33.33 0 0 1-.125-.265m2.497 1.25c0-.125.039-.226.125-.312q.124-.141.359-.141.187 0 .375.047.2.035.375.094v.625a1 1 0 0 1-.313.125 1.4 1.4 0 0 1-.359.046q-.299 0-.437-.14a.5.5 0 0 1-.125-.344m1.234.64c0 .075.023.137.078.188q.074.061.203.063a.27.27 0 0 0 .188-.078.33.33 0 0 0 .078-.22l-.016-1.327q0-.232-.094-.453a1.4 1.4 0 0 0-.218-.391 1.2 1.2 0 0 0-.36-.266.94.94 0 0 0-.437-.109q-.188 0-.328.047-.143.048-.25.11-.113.08-.22.171a4 4 0 0 1-.233.156.2.2 0 0 0-.079.172c.008.074.079.11.204.11a.8.8 0 0 0 .25-.032l.218-.093q.094-.059.188-.094a.6.6 0 0 1 .25-.047q.201.019.39.219.188.188.188.547v.046a2 2 0 0 0-.39-.125 4 4 0 0 0-.423-.062q-.468.002-.75.25a.8.8 0 0 0-.265.594c0 .261.101.476.312.64q.294.235.782.235c.125 0 .25-.024.375-.063q.199-.076.359-.187m1.619-.047q-.002.081-.016.156a.3.3 0 0 1-.016.094q-.001.045.016.062.03.031.062.032c.032 0 .067-.024.11-.063a.6.6 0 0 0 .11-.11 1.2 1.2 0 0 0 .124-.296q.012-.094.047-.328.014-.107.016-.203.014-.094.015-.188v-.375q.047-.42.25-.625.217-.217.47-.219c.062 0 .116.016.171.047.05.024.098.047.14.078q.077.048.126.094a.23.23 0 0 0 .125.031q.294 0 .296-.28 0-.076-.078-.157a1 1 0 0 0-.187-.156 1 1 0 0 0-.266-.094 1 1 0 0 0-.297-.047c-.343 0-.601.14-.765.422a.5.5 0 0 0-.063-.172.6.6 0 0 0-.125-.14.84.84 0 0 0-.547-.234.2.2 0 0 0-.109.03c-.031.024-.047.047-.047.078q-.001.048.016.094.03.048.078.078.03.047.078.094.046.048.094.11c.031.062.054.171.078.328v.203l.031.25q.014.14.016.28c.008.087.015.157.015.22v.234c.008.086.02.172.032.266zm2.638.922q.294-.11.406-.297.124-.188.188-.375.047-.186.047-.344v-.109a.3.3 0 0 0-.047-.172.5.5 0 0 0-.11-.125 1 1 0 0 0-.14-.047q-.066-.014-.125-.016a.3.3 0 0 0-.234.11.28.28 0 0 0-.063.234q.03.174.078.313a.26.26 0 0 0 .172.156.6.6 0 0 1-.078.25q-.065.093-.219.234c-.062.051-.07.102-.015.157q.012.029.062.046.045.013.078-.015m3.641-.922q-.002.081-.015.156a.3.3 0 0 1-.016.094q-.001.045.016.062.029.031.062.032c.031 0 .067-.024.11-.063a.6.6 0 0 0 .109-.11 1.2 1.2 0 0 0 .125-.296q.011-.094.047-.328.013-.107.015-.203c.008-.063.016-.125.016-.188v-.375q.046-.42.25-.625.216-.217.469-.219.091 0 .172.047a1 1 0 0 1 .14.078q.077.048.125.094c.04.024.082.031.125.031q.296 0 .297-.28 0-.076-.078-.157a1 1 0 0 0-.187-.156 1 1 0 0 0-.266-.094 1 1 0 0 0-.297-.047q-.517 0-.766.422a.5.5 0 0 0-.062-.172.6.6 0 0 0-.125-.14.84.84 0 0 0-.547-.234.2.2 0 0 0-.11.03c-.03.024-.046.047-.046.078q0 .048.015.094.03.048.079.078.03.047.078.094.047.048.093.11c.032.062.055.171.079.328v.203c.007.074.02.156.03.25q.015.14.016.28c.008.087.016.157.016.22v.234c.008.086.02.172.031.266zm2.998-1.015q.2.111.453.171.248.064.532.063.168 0 .343-.047a.9.9 0 0 0 .282-.157.56.56 0 0 0 .203-.234.64.64 0 0 0 .078-.312.84.84 0 0 0-.11-.375 1 1 0 0 0-.234-.328 1.8 1.8 0 0 0-.36-.204 1.3 1.3 0 0 0-.53-.125 1.15 1.15 0 0 0-.875.391q-.176.188-.282.453-.11.252-.11.578-.002.27.08.531.075.253.233.454.171.204.407.328a1.3 1.3 0 0 0 .953.062q.171-.045.312-.125.123-.094.235-.187.105-.107.187-.203a.15.15 0 0 0 .031-.125q0-.059-.03-.094-.034-.047-.079-.047-.048-.013-.078.016-.141.158-.375.28a.97.97 0 0 1-.531.11.66.66 0 0 1-.516-.218q-.189-.235-.219-.657m0-.282q.048-.434.235-.61a.56.56 0 0 1 .406-.187c.176 0 .32.055.437.156a.49.49 0 0 1 .188.391c0 .117-.04.203-.11.266a.34.34 0 0 1-.25.093 3 3 0 0 1-.468 0 2 2 0 0 1-.438-.109m3.07-.546q0-.106.062-.187a.27.27 0 0 1 .22-.094q.106.002.265.11a4 4 0 0 0 .265.187q.061.047.125.078a.6.6 0 0 0 .141.015q.106.001.172-.062.076-.062.078-.203a.7.7 0 0 0-.094-.36q-.08-.17-.218-.171-.08 0-.079.093v.219h.016a.9.9 0 0 0-.703-.328 1 1 0 0 0-.406.078.9.9 0 0 0-.25.188.7.7 0 0 0-.157.234.8.8 0 0 0-.03.219.6.6 0 0 0 .077.312.8.8 0 0 0 .22.235q.106.093.265.172.152.063.281.109.28.111.39.234.125.112.126.313a.32.32 0 0 1-.141.265.5.5 0 0 1-.328.11q-.223.001-.469-.11a1.4 1.4 0 0 1-.422-.312.12.12 0 0 0-.11-.031.1.1 0 0 0-.077.03.2.2 0 0 0-.047.095q0 .064.062.109.094.129.203.234.124.094.282.188c.195.113.406.172.625.172.281 0 .52-.07.718-.219a.8.8 0 0 0 .22-.25.6.6 0 0 0 .077-.297.6.6 0 0 0-.078-.312.9.9 0 0 0-.172-.25 2 2 0 0 0-.265-.188 5 5 0 0 0-.282-.14q-.314-.106-.437-.22a.33.33 0 0 1-.125-.265m2.341 3q-.002.076-.016.14-.002.062-.016.11v.063q.012.046.047.046.06-.002.125-.062a.5.5 0 0 0 .11-.125 2 2 0 0 0 .078-.156 1 1 0 0 0 .062-.125q.03-.13.047-.328c.008-.075.016-.149.016-.22q.013-.094.015-.171V5.1c.102.062.22.11.344.14q.187.047.39.047.547 0 .923-.39a1.6 1.6 0 0 0 .25-.438q.107-.246.109-.562c0-.219-.031-.414-.094-.594a1.3 1.3 0 0 0-.265-.453 1.1 1.1 0 0 0-.391-.297 1.1 1.1 0 0 0-.469-.11 1 1 0 0 0-.265.047 2 2 0 0 0-.282.094c-.086.043-.156.09-.218.14a.23.23 0 0 0-.078.173l-.047-.063q-.019-.03-.032-.047a.14.14 0 0 0-.046-.046.3.3 0 0 1-.032-.063.86.86 0 0 0-.562-.234.2.2 0 0 0-.11.03q-.046.034-.046.079-.002.047.015.094.03.033.078.078.048.048.094.11c.031.03.055.07.078.109a.3.3 0 0 1 .047.125q.03.08.031.172-.001.188.016.453c.008.18.016.359.016.547.007.187.015.37.015.546q.013.27.031.438v.234c.008.094.016.18.016.266.008.082.016.16.016.234zm.484-3.047c.031.063.07.094.125.094a.2.2 0 0 0 .11-.031q.074-.03.156-.078c.05-.032.101-.055.156-.079a.6.6 0 0 1 .672.203c.133.15.203.376.203.688q-.019.438-.219.719-.235.3-.547.281a1.7 1.7 0 0 1-.343-.031 1.5 1.5 0 0 1-.329-.094v-.422q-.001-.215.016-.437zm2.765-1.609q-.001.175.11.281.106.11.265.11a.28.28 0 0 0 .219-.11q.107-.106.109-.266a.3.3 0 0 0-.125-.25c-.074-.07-.14-.109-.203-.109a.38.38 0 0 0-.281.11.36.36 0 0 0-.094.234m.094 3.437q0 .112.062.188c.05.055.125.078.219.078.07 0 .129-.023.172-.078a.33.33 0 0 0 .078-.219V3.1a.7.7 0 0 0-.047-.25.9.9 0 0 0-.156-.266.7.7 0 0 0-.235-.156.5.5 0 0 0-.203-.047.15.15 0 0 0-.11.047q-.046.033-.046.078 0 .082.062.156.03.048.063.094.029.047.062.094a.5.5 0 0 1 .016.125.2.2 0 0 1 .016.078q0 .048.015.078v.219q.014.13.016.281.014.298.016.531Zm1.623.063c0 .055-.008.105-.015.156a.3.3 0 0 1-.016.094q-.001.045.016.062.029.031.062.032c.031 0 .067-.024.11-.063a.6.6 0 0 0 .109-.11 1.2 1.2 0 0 0 .125-.296q.011-.094.047-.328.013-.107.015-.203c.008-.063.016-.125.016-.188v-.375q.045-.42.25-.625.216-.217.469-.219.091 0 .172.047a1 1 0 0 1 .14.078q.077.048.125.094c.04.024.082.031.125.031q.296 0 .297-.28 0-.076-.078-.157a1 1 0 0 0-.187-.156 1 1 0 0 0-.266-.094 1 1 0 0 0-.297-.047q-.518 0-.766.422a.5.5 0 0 0-.062-.172.6.6 0 0 0-.125-.14.84.84 0 0 0-.547-.234.2.2 0 0 0-.11.03c-.03.024-.046.047-.046.078q0 .048.015.094.03.048.079.078.03.047.078.094.046.048.093.11c.032.062.055.171.079.328v.203c.007.074.02.156.03.25q.015.14.016.28c.008.087.016.157.016.22v.234c.008.086.02.172.031.266zm2.92-.594a.42.42 0 0 1 .125-.312q.124-.141.36-.141.187 0 .375.047.198.035.375.094v.625a1 1 0 0 1-.313.125 1.4 1.4 0 0 1-.36.046q-.297 0-.437-.14a.5.5 0 0 1-.125-.344m1.235.64c0 .075.023.137.078.188q.075.061.203.063a.27.27 0 0 0 .187-.078.33.33 0 0 0 .078-.22l-.015-1.327q0-.232-.094-.453a1.4 1.4 0 0 0-.219-.391 1.2 1.2 0 0 0-.36-.266.94.94 0 0 0-.437-.109q-.187 0-.328.047a1.4 1.4 0 0 0-.25.11q-.112.08-.218.171a4 4 0 0 1-.235.156.2.2 0 0 0-.078.172q.014.11.203.11a.8.8 0 0 0 .25-.032l.219-.093q.093-.059.187-.094a.6.6 0 0 1 .25-.047q.201.019.391.219.188.188.188.547v.046a2 2 0 0 0-.391-.125 4 4 0 0 0-.422-.062q-.468.002-.75.25a.8.8 0 0 0-.266.594q-.002.393.313.64.294.235.781.235c.125 0 .25-.024.375-.063q.2-.076.36-.187m1.618-.047c0 .055-.008.105-.015.156a.3.3 0 0 1-.016.094q-.001.045.016.062.029.031.062.032c.031 0 .066-.024.11-.063a.6.6 0 0 0 .109-.11 1.2 1.2 0 0 0 .125-.296q.012-.094.047-.328.014-.107.015-.203.014-.094.016-.188v-.375q.046-.42.25-.625.216-.217.469-.219.091 0 .172.047a1 1 0 0 1 .14.078q.078.048.125.094c.04.024.082.031.125.031q.296 0 .297-.28 0-.076-.078-.157a1 1 0 0 0-.188-.156 1 1 0 0 0-.265-.094 1 1 0 0 0-.297-.047q-.518 0-.766.422a.5.5 0 0 0-.062-.172.6.6 0 0 0-.125-.14.84.84 0 0 0-.547-.234.2.2 0 0 0-.11.03c-.03.024-.046.047-.046.078q0 .048.015.094.03.048.078.078.03.047.079.094.046.048.093.11c.032.062.055.171.078.328v.203q.013.11.032.25.014.14.015.28c.008.087.016.157.016.22v.234c.008.086.02.172.031.266zm5.437-.203q.014.046.032.093c-.043.086-.09.172-.14.266a3 3 0 0 0-.126.266 2 2 0 0 0-.14.25l-.125.234q-.096.154-.016.266c.063.082.117.125.172.125q.139-.002.266-.203.105-.189.234-.407a24 24 0 0 0 .484-.937c.07-.156.141-.297.203-.422q.076-.152.157-.328.074-.169.156-.344l.14-.312q.059-.154.094-.266a.48.48 0 0 0-.015-.312.6.6 0 0 0-.125-.25.9.9 0 0 0-.266-.172.7.7 0 0 0-.266-.079q-.046 0-.093.047a.1.1 0 0 0-.032.079.15.15 0 0 0 .032.093q.03.048.078.11.045.066.078.125a.2.2 0 0 1 .031.078c0 .043-.008.09-.015.14a.7.7 0 0 1-.016.141q-.033.064-.078.203l-.094.281a9 9 0 0 0-.125.282 5 5 0 0 1-.078.218l-.063.157a.4.4 0 0 0-.03.078l-.032.078a1 1 0 0 1-.063-.125.6.6 0 0 1-.046-.156l-.063-.141a.6.6 0 0 1-.047-.156 3 3 0 0 1-.094-.203c-.03-.082-.07-.164-.109-.25l-.125-.235-.078-.203a.7.7 0 0 0-.344-.328 1 1 0 0 0-.437-.11c-.074 0-.125.024-.157.063a.15.15 0 0 0-.046.11c0 .03.007.058.03.078q.031.034.079.062a.6.6 0 0 0 .094.078.3.3 0 0 1 .078.047q.013.035.031.063.03.034.063.062a.3.3 0 0 0 .046.094q.03.033.063.078.029.066.094.172.06.112.125.219.06.112.11.218.044.095.077.141c.04.086.082.172.125.266q.06.129.125.234.061.11.11.203.044.095.078.14m4.957.001v.031l.016.016c0 .03.004.054.015.062a.4.4 0 0 0-.047.172q-.002.063.032.11c.05.07.11.109.172.109q.045 0 .109-.047.076-.029.14-.156a8 8 0 0 0 .204-.36q.107-.199.203-.422.074-.151.156-.328c.05-.125.102-.242.156-.36q.06-.17.125-.312.075-.153.11-.265a.48.48 0 0 0-.016-.313.8.8 0 0 0-.125-.25.9.9 0 0 0-.266-.172.8.8 0 0 0-.265-.062.2.2 0 0 0-.094.031.1.1 0 0 0-.031.078q-.002.048.031.11c.02.03.047.07.078.109q.045.048.078.11.031.046.032.093-.002.047-.016.14a.5.5 0 0 1-.016.126q-.033.08-.078.219-.046.126-.094.265c-.03.094-.07.188-.109.281a4 4 0 0 0-.094.22l-.14.343a1 1 0 0 0-.047-.125.6.6 0 0 1-.047-.156l-.063-.141a.6.6 0 0 1-.046-.156 3 3 0 0 1-.094-.203q-.048-.124-.11-.266l-.125-.234a4 4 0 0 1-.078-.22.7.7 0 0 0-.359-.327 1.1 1.1 0 0 0-.422-.11.22.22 0 0 0-.156.063.15.15 0 0 0-.047.11c0 .023.008.046.031.077q.03.035.078.063a1 1 0 0 1 .094.078q.045.035.078.047c.063.062.13.164.203.297a4 4 0 0 0 .22.406c.038.086.077.164.108.234.032.063.055.11.079.141q.122.27.25.516.123.234.187.328m1.877-.969q-.001.391.125.672.14.282.344.453.201.174.438.266.247.077.5.078c.156 0 .312-.04.468-.11q.235-.107.422-.296.17-.2.281-.454c.07-.175.11-.367.11-.578 0-.219-.04-.41-.11-.578a1.6 1.6 0 0 0-.28-.453 1.25 1.25 0 0 0-.423-.281 1.05 1.05 0 0 0-.453-.11q-.315.001-.578.125c-.18.075-.328.18-.453.313a1.4 1.4 0 0 0-.297.437q-.093.252-.094.516m.578-.031q0-.34.235-.61a.7.7 0 0 1 .25-.187.7.7 0 0 1 .328-.078q.122.002.25.062.123.065.234.188.094.127.157.297.076.175.078.39-.001.234-.078.422a.9.9 0 0 1-.157.281.7.7 0 0 1-.234.188.55.55 0 0 1-.25.062.78.78 0 0 1-.578-.234q-.234-.247-.235-.781m3.037 1.14q0 .112.063.188c.05.055.125.078.219.078a.23.23 0 0 0 .172-.078.32.32 0 0 0 .078-.203v-2.86a.55.55 0 0 0-.078-.28 1 1 0 0 0-.157-.25.8.8 0 0 0-.28-.173.8.8 0 0 0-.267-.062.2.2 0 0 0-.109.031q-.047.033-.047.078a.15.15 0 0 0 .031.094q.03.033.063.078.046.048.094.11c.03.03.062.07.093.109l.047.125q.031.08.032.172c.007.148.015.308.015.484q.014.251.016.484v.47q.013.222.015.374Zm2.465-.14v.031l.016.016c0 .03.004.054.016.062a.4.4 0 0 0-.047.172q-.002.063.031.11.077.107.172.109.045 0 .11-.047.075-.029.14-.156a8 8 0 0 0 .203-.36q.107-.199.203-.422.076-.151.156-.328c.051-.125.102-.242.157-.36q.06-.17.125-.312.074-.153.11-.265a.48.48 0 0 0-.017-.313.8.8 0 0 0-.125-.25.9.9 0 0 0-.265-.172.8.8 0 0 0-.266-.062.2.2 0 0 0-.094.031.1.1 0 0 0-.03.078c0 .031.007.07.03.11.02.03.047.07.079.109q.044.048.078.11.03.046.031.093-.002.047-.016.14a.5.5 0 0 1-.015.126c-.024.054-.047.125-.078.219q-.048.126-.094.265-.048.141-.11.281a4 4 0 0 0-.093.22l-.14.343a1 1 0 0 0-.048-.125.6.6 0 0 1-.047-.156l-.062-.141a.6.6 0 0 1-.047-.156 3 3 0 0 1-.094-.203q-.048-.124-.11-.266-.064-.123-.124-.234a4 4 0 0 1-.078-.22.7.7 0 0 0-.36-.327 1.1 1.1 0 0 0-.422-.11.22.22 0 0 0-.156.063.15.15 0 0 0-.047.11c0 .023.008.046.032.077q.03.035.078.063a1 1 0 0 1 .093.078c.032.023.055.04.079.047.062.062.129.164.203.297a4 4 0 0 0 .218.406q.062.129.11.234.045.095.078.141.122.27.25.516.123.234.187.328m2.518-.812q.2.111.453.171.248.064.532.063.168 0 .343-.047a.9.9 0 0 0 .282-.157.56.56 0 0 0 .203-.234.64.64 0 0 0 .078-.312.84.84 0 0 0-.11-.375 1 1 0 0 0-.234-.328 1.8 1.8 0 0 0-.36-.204 1.3 1.3 0 0 0-.53-.125 1.15 1.15 0 0 0-.875.391q-.176.188-.282.453-.11.252-.11.578-.002.27.079.531.076.253.234.454.171.204.407.328a1.3 1.3 0 0 0 .953.062q.171-.045.312-.125.123-.094.235-.187.105-.107.187-.203a.15.15 0 0 0 .031-.125q0-.059-.03-.094-.034-.047-.079-.047-.048-.013-.078.016-.141.158-.375.28a.97.97 0 0 1-.531.11.66.66 0 0 1-.516-.218q-.189-.235-.219-.657m0-.282q.048-.434.235-.61a.56.56 0 0 1 .406-.187c.176 0 .32.055.437.156a.49.49 0 0 1 .188.391c0 .117-.04.203-.11.266a.34.34 0 0 1-.25.093 3 3 0 0 1-.468 0 2 2 0 0 1-.438-.109m2.804 1.298q-.002.081-.015.156a.3.3 0 0 1-.016.094q-.001.045.016.062.029.031.062.032c.031 0 .067-.024.11-.063a.6.6 0 0 0 .109-.11 1.2 1.2 0 0 0 .125-.296q.011-.094.047-.328.014-.107.015-.203.014-.094.016-.188v-.375q.046-.42.25-.625.216-.217.469-.219.091 0 .172.047a1 1 0 0 1 .14.078q.078.048.125.094c.04.024.082.031.125.031q.295 0 .297-.28 0-.076-.078-.157a1 1 0 0 0-.187-.156 1 1 0 0 0-.266-.094 1 1 0 0 0-.297-.047q-.517 0-.766.422a.5.5 0 0 0-.062-.172.6.6 0 0 0-.125-.14.84.84 0 0 0-.547-.234.2.2 0 0 0-.11.03c-.03.024-.046.047-.046.078q0 .048.015.094.03.048.079.078.03.047.078.094.046.048.093.11c.032.062.055.171.079.328v.203c.007.074.02.156.03.25q.015.14.016.28c.008.087.016.157.016.22v.234c.008.086.02.172.031.266zm4.907-.594c0-.125.039-.226.125-.312q.124-.141.359-.141.187 0 .375.047.2.035.375.094v.625a1 1 0 0 1-.312.125 1.4 1.4 0 0 1-.36.046q-.299 0-.437-.14a.5.5 0 0 1-.125-.344m1.234.64c0 .075.023.137.078.188q.075.061.203.063a.27.27 0 0 0 .188-.078.33.33 0 0 0 .078-.22l-.016-1.327q0-.232-.093-.453a1.4 1.4 0 0 0-.22-.391 1.2 1.2 0 0 0-.359-.266.94.94 0 0 0-.437-.109q-.187 0-.328.047c-.094.031-.18.07-.25.11q-.113.08-.219.171a4 4 0 0 1-.234.156.2.2 0 0 0-.078.172c.007.074.078.11.203.11a.8.8 0 0 0 .25-.032l.218-.093q.094-.059.188-.094a.6.6 0 0 1 .25-.047c.133.012.266.086.39.219q.189.188.188.547v.046a2 2 0 0 0-.39-.125 4 4 0 0 0-.422-.062q-.47.002-.75.25a.8.8 0 0 0-.266.594c0 .261.101.476.312.64q.294.235.782.235c.125 0 .25-.024.375-.063q.2-.076.359-.187m4.371-.25v.031l.015.016c0 .03.004.054.016.062a.4.4 0 0 0-.047.172q-.002.063.031.11.078.107.172.109.046 0 .11-.047.075-.029.14-.156a8 8 0 0 0 .203-.36c.07-.133.141-.273.203-.422q.076-.151.157-.328c.05-.125.101-.242.156-.36q.06-.17.125-.312.075-.153.11-.265a.48.48 0 0 0-.016-.313.8.8 0 0 0-.125-.25.9.9 0 0 0-.266-.172.8.8 0 0 0-.266-.062.2.2 0 0 0-.093.031.1.1 0 0 0-.032.078q-.002.048.032.11c.02.03.047.07.078.109q.045.048.078.11.03.046.031.093c0 .031-.008.078-.015.14a.5.5 0 0 1-.016.126q-.033.08-.078.219-.047.126-.094.265-.048.141-.11.281a4 4 0 0 0-.093.22l-.14.343a1 1 0 0 0-.048-.125.6.6 0 0 1-.046-.156l-.063-.141a.6.6 0 0 1-.047-.156 3 3 0 0 1-.094-.203c-.03-.082-.07-.172-.109-.266l-.125-.234a4 4 0 0 1-.078-.22.7.7 0 0 0-.36-.327 1.1 1.1 0 0 0-.421-.11.22.22 0 0 0-.157.063.15.15 0 0 0-.046.11c0 .023.007.046.03.077q.031.035.079.063a1 1 0 0 1 .094.078c.031.023.054.04.078.047.062.062.129.164.203.297a4 4 0 0 0 .219.406l.11.234q.044.095.077.141.122.27.25.516.123.234.188.328m1.877-.969q-.002.391.125.672.14.282.344.453.2.174.437.266.247.077.5.078c.156 0 .313-.04.469-.11q.234-.107.422-.296.17-.2.281-.454c.07-.175.11-.367.11-.578 0-.219-.04-.41-.11-.578a1.6 1.6 0 0 0-.281-.453 1.25 1.25 0 0 0-.422-.281 1.05 1.05 0 0 0-.453-.11q-.316.001-.578.125c-.18.075-.328.18-.453.313a1.4 1.4 0 0 0-.297.437q-.094.252-.094.516m.578-.031q0-.34.234-.61a.7.7 0 0 1 .25-.187.7.7 0 0 1 .329-.078q.122.002.25.062.123.065.234.188.092.127.156.297.076.175.078.39 0 .234-.078.422a.9.9 0 0 1-.156.281.7.7 0 0 1-.234.188.55.55 0 0 1-.25.062.78.78 0 0 1-.579-.234q-.234-.247-.234-.781m3.366-.641q-.001-.106.062-.187a.27.27 0 0 1 .218-.094q.106.002.266.11a4 4 0 0 0 .266.187q.06.047.125.078a.6.6 0 0 0 .14.015q.107.001.172-.062.077-.062.078-.203a.7.7 0 0 0-.093-.36c-.055-.113-.125-.171-.22-.171q-.079 0-.077.093v.219h.015a.9.9 0 0 0-.703-.328 1 1 0 0 0-.406.078.9.9 0 0 0-.25.188.7.7 0 0 0-.156.234.8.8 0 0 0-.032.219.6.6 0 0 0 .079.312.8.8 0 0 0 .218.235q.106.093.266.172.152.063.281.109.281.111.39.234.125.112.126.313a.32.32 0 0 1-.14.265.5.5 0 0 1-.329.11q-.223.001-.469-.11a1.4 1.4 0 0 1-.422-.312.12.12 0 0 0-.109-.031.1.1 0 0 0-.078.03.2.2 0 0 0-.047.095q0 .064.063.109.093.129.203.234.123.094.281.188c.195.113.406.172.625.172.281 0 .52-.07.719-.219a.8.8 0 0 0 .218-.25.6.6 0 0 0 .079-.297.6.6 0 0 0-.079-.312.9.9 0 0 0-.171-.25 2 2 0 0 0-.266-.188 5 5 0 0 0-.281-.14q-.316-.106-.438-.22a.33.33 0 0 1-.125-.265m0 0"/></g></g></svg>